<svg xmlns="http://www.w3.org/2000/svg" viewBox="0 0 595 709.45"><defs><style>.cls-1,.cls-3{fill:#2e3440;}.cls-1{stroke:#343434;}.cls-1,.cls-2{stroke-miterlimit:10;}.cls-2{fill:none;stroke:#2e3440;stroke-width:25px;}</style></defs><path class="cls-1" d="M239.4,581.32a22.16,22.16,0,0,1,5.39-6.46c9.24-7.86,20.4-4.18,25.21-13.32,3.1-5.89-.79-8.86,2.16-14.59,4.86-9.46,17.36-5.07,29.53-14.26,10.43-7.88,34.12-25.67,15.71-28.15s1.32-30.85,4.2-31.3c2-.3,4.67,6.4,5.8,5.93.68-.28-.11-2.75-.17-5.2-.19-8,7.26-15.51,9.52-14.58,2.44,1-.59,12.1,1.24,12.61.91.24,2.5-2.2,3.42-4.51,2.55-6.36-.63-10.09.07-15.68,1.16-9.28,12.27-17.28,17.84-15.36,3.42,1.18,3.89,5.81,6,5.6,2.76-.25,1.81-7.81,7.16-12.82,3.1-2.9,5.09-1.92,11.25-4.64,5.52-2.44,5.74-4,14.51-10.29,7.92-5.68,16.07-11.51,19.32-9.17,2.31,1.65,1.26,6.78,2.46,6.93.9.12,1.13-2.82,3.33-5.07,3-3.08,6.22-1.27,11-3.31,6.71-2.85,8.18-9.69,10.63-8.92,2.23.71,1.62,6.54,3.32,6.83,1.47.25,2.19-4.12,5.65-8.13,4.3-5,12-8.48,17.7-6.35,2.69,1,4.61,4.43,4.57,2.46s7.44-17.29,10.62-17c2.19.17,3.06,8.39,4.25,8.3,1.54-.12.5-13.94,3.29-14.5,2.17-.44,5.58,7.34,6.25,7s-3.51-5.88-2.06-11.2c1.57-5.74,7.92-5,9.41-10.36,1.57-5.64-5-8.37-3.85-16.62.43-3.11,1.68-5,.52-7.46a8.31,8.31,0,0,0-5.56-4.22c-1.69-.38-2.37.09-3.63,0-4.46-.19-6.18-6.5-11.27-11.6S467,302.41,471,305.67s10.75,16,8.1,18.83c-.95,1-3.32,0-4.16,1.4-1,1.7,1.6,4.66.78,5.42s-2.48-1.39-4.2-.91c-2.69.74-1.82,6.7-3.86,7.46-3.53,1.32-11.64-14.39-14.29-13.39s4.28,15.61-1.12,20.46c-3.12,2.8-7.59-.09-26-2.74-7.11-1-11.56.33-16.27.08-13.23-.72-18.79-.52-21.75-4.59-2-2.71-1.73-6-1.4-8.67,2.84-22.7,17.94-40.91,17.94-40.91,10.84-13.07,17.31-22.71,25.3-20.1,13.35,4.35,25,25,26.25,22.72,2.42-4.42-11.4-22.25-12.73-36.8-.16-1.74,2.08-8.43,5.82-9,6.57-1,18.5,19.37,17.84,16.84s.44-15,2.84-15.6c2.92-.72,11.53,20.42,11.89,18.92s5.64-17.93-2.44-32c-5.07-8.83-10.88-10.16-15.24-20.95-8.69-2.79-1.5-7.07-3.21-16.13-6.13-10.23-6.24-33.23-15.54-35.13-3.92-.8-6.92,2.87-13.81,8-12.39,14.11-12.07,20-18.57,22.43-9.84,3.59-21-3.77-29.33,7-4.25,5.46-4.22,10.08-9.88,12.11-4.74,1.7-8.53-.81-13.27,2.1-2.58,1.58-3.52,3.67-4.67,5.24-6,8.21-22,11.5-34.35,11.79-8.05.2-12.11-7.88-16.32-5.63-2.14,1.15-1.37,2.83-3.58,4.72-5.76,4.94-15.67-2.39-21,2.33-2.22,2-.55,3.29-3,5.81-3.89,3.92-8.91,1.64-15.88,5.53-2.54,1.42-3.54,3.38-4.89,3.73-13.91,3.53-50.71-1.36-50.56,4.21,5.77,2,6.38,3.68,7.18,4.1L201.54,262c-18.38,11.93-20.53,24.63-36.61,31-9.87,3.93-10.57-.25-28.05,4.4-14,3.72-15.73,7-25.33,9.85-26.7,7.95-47.4.7-52-.25S76.9,328.83,72.33,341.8c-4.42,12.56-30.66,15.22-30,17.8.37,1.47,8.68-.05,9.68,2.62.66,1.76-2.14,4.72-4.89,6.43-8.5,5.32-18-.27-20.76,3.85-1.77,2.64,1.7,5.63.23,9.64-1,2.62-3.53,4.28-6.21,5.34a296,296,0,0,0,219,193.84ZM262,288.74c1.7-5.47,8.59-15.24,18.46-19.8,5.53-2.55,20.26-3.55,21.26-1.78s-.72,13.06-5.9,18.18C285.22,295.77,260.25,294.21,262,288.74Z" transform="translate(-2.5 -6.5)"/><circle class="cls-2" cx="297.5" cy="297.5" r="285"/><path class="cls-3" d="M32.24,667.56v31.28H24.88v-3.68L25,632.7V629h3.68l26-.1c15,0,21.8,9.75,21.71,19.41.09,9.3-9.75,19.32-21.71,19.23Zm0-7.28,22.45-.08c8.83,0,14.44-5.61,14.35-11.87.09-7.45-3.13-12-14.35-12.05H32.24Z" transform="translate(-2.5 -6.5)"/><path class="cls-3" d="M92.5,651.92c5.4-5.5,13.3-8.55,22.08-8.55h3.68v7.36h-3.68c-13.56,0-22,6.48-22.08,19.89v28.22H85.14V643.37H92.5v8.55Z" transform="translate(-2.5 -6.5)"/><path class="cls-3" d="M123.32,671.06c0-14.63,11.59-27.6,24.84-27.69s24.93,13.15,24.84,27.69c0,14.72-11.41,27.87-24.84,27.78S123.32,685.78,123.32,671.06Zm7.36,0c0,12,7.54,20.51,17.48,20.42s17.57-8.37,17.48-20.42c0-11.87-7.36-20.24-17.48-20.33S130.68,659.19,130.68,671.06Z" transform="translate(-2.5 -6.5)"/><path class="cls-3" d="M189.1,647.05l.09-3.59h7.45l-.09,3.68-.09,48c0,10.67-7.64,20.79-16.56,20.79h-3.68v-7.36h3.68c5.24,0,9.29-5.15,9.2-13.43Zm3.68-14.81H189.1v-7.36h7.45v7.36h-3.77Z" transform="translate(-2.5 -6.5)"/><path class="cls-3" d="M201.81,674.83h-.29v-7.36h.24c1.71-13.2,12.46-24,24.6-24.1,13.33,0,24.83,13.06,24.83,27.78v3.68h-42c1.62,10.14,9.72,17.88,18.2,16.65h.09c10.39-1.38,13.15-3.68,15-9.66l.74-2.57h7.73L249.45,684c-2.39,8-8.38,13.15-21.07,14.81C216.14,700.44,203.83,688.34,201.81,674.83Zm7.34-7.36h34.68c0-8.28-7.35-16.65-17.47-16.74C217.39,650.73,210.56,657.49,209.15,667.47Z" transform="translate(-2.5 -6.5)"/><path class="cls-3" d="M301.79,654.31l3.22,5.52h-8.55L295.35,658c-2.57-4.5-8.09-7.17-14.26-7.26-10,0-17.38,8.55-17.48,20.42s7.46,20.33,17.48,20.33c5.8-.09,11.69-3.5,14.36-7.91l1-1.75h8.64l-3.4,5.61c-3.59,5.89-12.79,11.32-20.61,11.41-13.34,0-24.74-13-24.83-27.69s11.49-27.78,24.83-27.78h.1C288.91,643.46,297.93,647.78,301.79,654.31Z" transform="translate(-2.5 -6.5)"/><path class="cls-3" d="M317.53,651.28V683c.09,6.25,2.66,8.46,10,8.46h3.68v7.36h-3.68c-10.12,0-17.29-6.26-17.38-15.82V651.28H303v-7.36h7.18V632.24h7.36v11.68h11.22v7.36H317.53Z" transform="translate(-2.5 -6.5)"/><path class="cls-3" d="M409.43,628.92h3.68v7.36h-36.8V660.2h26.77v7.36H376.31v31.28H369V628.92h40.48Z" transform="translate(-2.5 -6.5)"/><path class="cls-3" d="M429.21,651.92c5.4-5.5,13.3-8.55,22.08-8.55H455v7.36h-3.68c-13.56,0-22,6.48-22.08,19.89v28.22h-7.36V643.37h7.36v8.55Z" transform="translate(-2.5 -6.5)"/><path class="cls-3" d="M460.32,674.83H460v-7.36h.24c1.72-13.2,12.46-24,24.6-24.1,13.34,0,24.84,13.06,24.84,27.78v3.68h-42c1.62,10.14,9.72,17.88,18.2,16.65H486c10.4-1.38,13.16-3.68,15-9.66l.73-2.57h7.73L508,684c-2.39,8-8.37,13.15-21.07,14.81C474.66,700.44,462.34,688.34,460.32,674.83Zm7.34-7.36h34.69c0-8.28-7.36-16.65-17.48-16.74C475.9,650.73,469.07,657.49,467.66,667.47Z" transform="translate(-2.5 -6.5)"/><path class="cls-3" d="M528.87,674.74h-3.06v24.1h-7.36V623.5h7.36v43.88h3.07l23.79-23,1.1-1h10.58l-6.53,6.34-22.17,21.35,22.17,21.43,6.53,6.35H553.77l-1.1-1Z" transform="translate(-2.5 -6.5)"/><path class="cls-3" d="M571.35,632h-3.68V624.6h7.45V632h-3.77Zm-3.68,15.09v-3.68H575v55.47h-7.36V647.05Z" transform="translate(-2.5 -6.5)"/></svg>