<svg xmlns="http://www.w3.org/2000/svg" viewBox="0 0 2332.59 595"><defs><style>.cls-1,.cls-2{fill:#fff;}.cls-2,.cls-3{stroke:#fff;stroke-miterlimit:10;}.cls-3{fill:none;stroke-width:25px;}</style></defs><path class="cls-1" d="M816.5,293.83V383h-21V372.54l.26-178.13v-10.5h10.49l74.25-.26c42.76,0,62.17,27.81,61.91,55.35.26,26.5-27.81,55.1-61.91,54.83Zm0-20.76,64-.22c25.18,0,41.19-16,40.92-33.85.27-21.25-8.92-34.1-40.92-34.36h-64Z" transform="translate(-32 -3)"/><path class="cls-1" d="M988.33,249.25c15.4-15.71,37.92-24.41,63-24.41h10.5v21h-10.5c-38.66,0-62.7,18.48-63,56.72V383h-21V224.84h21v24.41Z" transform="translate(-32 -3)"/><path class="cls-1" d="M1076.22,303.8c0-41.71,33-78.7,70.83-79,38,0,71.09,37.51,70.83,79,0,42-32.53,79.49-70.83,79.23C1109,383,1076.22,345.78,1076.22,303.8Zm21,0c0,34.11,21.52,58.51,49.85,58.24,28.59,0,50.11-23.87,49.84-58.24,0-33.84-21-57.71-49.84-58C1118.45,245.83,1097.2,270,1097.2,303.8Z" transform="translate(-32 -3)"/><path class="cls-1" d="M1263.79,235.33l.26-10.23h21.25l-.26,10.49-.26,137c0,30.43-21.78,59.29-47.22,59.29h-10.5v-21h10.5c15,0,26.49-14.69,26.23-38.3Zm10.5-42.24h-10.5v-21H1285v21h-10.75Z" transform="translate(-32 -3)"/><path class="cls-1" d="M1300,314.56h-.82v-21h.68c4.9-37.65,35.54-68.49,70.15-68.73,38,0,70.83,37.25,70.83,79.23v10.49H1321c4.61,28.92,27.73,51,51.9,47.48h.26c29.64-3.93,37.51-10.49,42.76-27.54l2.1-7.35h22l-4.2,13.64c-6.82,22.83-23.88,37.52-60.08,42.24C1340.92,387.6,1305.8,353.1,1300,314.56Zm20.93-21h98.92c0-23.61-21-47.48-49.84-47.74C1344.48,245.83,1325,265.12,1321,293.57Z" transform="translate(-32 -3)"/><path class="cls-1" d="M1585.16,256.06l9.18,15.74H1570l-3.15-5.25c-7.35-12.85-23.09-20.46-40.67-20.72-28.59,0-49.58,24.39-49.84,58.24,0,33.84,21.25,58,49.84,58,16.53-.26,33.32-10,40.93-22.56l2.89-5h24.66l-9.71,16c-10.23,16.79-36.47,32.27-58.77,32.53-38,0-70.57-37-70.83-79,0-42,32.79-79.23,70.83-79.23h.27C1548.43,225.1,1574.14,237.43,1585.16,256.06Z" transform="translate(-32 -3)"/><path class="cls-1" d="M1630,247.4v90.51c.27,17.84,7.61,24.13,28.6,24.13h10.49v21h-10.49c-28.86,0-49.32-17.84-49.58-45.12V247.4h-20.47v-21H1609V193.09h21v33.32h32v21h-32Z" transform="translate(-32 -3)"/><path class="cls-1" d="M1892.11,183.65h10.49v21H1797.66v68.21H1874v21h-76.34V383h-21V183.65h115.44Z" transform="translate(-32 -3)"/><path class="cls-1" d="M1948.51,249.25c15.4-15.71,37.92-24.41,63-24.41H2022v21h-10.5c-38.67,0-62.7,18.48-63,56.72V383h-21V224.84h21v24.41Z" transform="translate(-32 -3)"/><path class="cls-1" d="M2037.22,314.56h-.83v-21h.68c4.9-37.65,35.55-68.49,70.16-68.73,38,0,70.83,37.25,70.83,79.23v10.49H2058.21c4.61,28.92,27.73,51,51.9,47.48h.26c29.65-3.93,37.52-10.49,42.77-27.54l2.1-7.35h22l-4.19,13.64c-6.83,22.83-23.88,37.52-60.08,42.24C2078.1,387.6,2043,353.1,2037.22,314.56Zm20.93-21h98.92c0-23.61-21-47.48-49.84-47.74C2081.66,245.83,2062.18,265.12,2058.15,293.57Z" transform="translate(-32 -3)"/><path class="cls-1" d="M2232.71,314.3H2224V383h-21V168.17h21V293.31h8.76l67.84-65.59,3.15-2.88h30.17l-18.62,18.1L2252,303.8l63.23,61.13,18.62,18.1h-30.17l-3.15-2.88Z" transform="translate(-32 -3)"/><path class="cls-1" d="M2353.83,192.31h-10.49v-21h21.25v21h-10.76Zm-10.49,43V224.84h21V383h-21V235.33Z" transform="translate(-32 -3)"/><path class="cls-2" d="M268.9,577.82a22.16,22.16,0,0,1,5.39-6.46c9.24-7.86,20.4-4.18,25.21-13.32,3.1-5.89-.79-8.86,2.16-14.59,4.86-9.46,17.36-5.07,29.53-14.26,10.43-7.88,34.12-25.67,15.71-28.15s1.32-30.85,4.2-31.3c2-.3,4.67,6.4,5.8,5.93.68-.28-.11-2.75-.17-5.2-.19-8,7.26-15.51,9.52-14.58,2.44,1-.59,12.1,1.24,12.61.91.24,2.5-2.2,3.42-4.51,2.55-6.36-.63-10.09.07-15.68C372.14,439,383.25,431,388.82,433c3.42,1.18,3.89,5.81,6,5.6,2.76-.25,1.81-7.81,7.16-12.82,3.1-2.9,5.09-1.92,11.25-4.64,5.52-2.44,5.74-4,14.51-10.29,7.92-5.68,16.07-11.51,19.32-9.17,2.31,1.65,1.26,6.78,2.46,6.93.9.12,1.13-2.82,3.33-5.07,3-3.08,6.22-1.27,11-3.31,6.71-2.85,8.18-9.69,10.63-8.92,2.23.71,1.62,6.54,3.32,6.83,1.47.25,2.19-4.12,5.65-8.13,4.3-5,12-8.48,17.7-6.35,2.69,1,4.61,4.43,4.57,2.46s7.44-17.29,10.62-17c2.19.17,3.06,8.39,4.25,8.3,1.54-.12.5-13.94,3.29-14.5,2.17-.44,5.58,7.34,6.25,7s-3.51-5.88-2.06-11.2c1.57-5.74,7.92-5,9.41-10.36,1.57-5.64-5-8.37-3.85-16.62.43-3.11,1.68-5,.52-7.46a8.31,8.31,0,0,0-5.56-4.22c-1.69-.38-2.37.09-3.63,0-4.46-.19-6.18-6.5-11.27-11.6s-17.22-9.52-13.26-6.26,10.75,16,8.1,18.83c-.95,1-3.32,0-4.16,1.4-1,1.7,1.6,4.66.78,5.42s-2.48-1.39-4.2-.91c-2.69.74-1.82,6.7-3.86,7.46C493.61,335.69,485.5,320,482.85,321s4.28,15.61-1.12,20.46c-3.12,2.8-7.59-.09-26-2.74-7.11-1-11.56.33-16.27.08-13.23-.72-18.79-.52-21.75-4.59-2-2.71-1.73-6-1.4-8.67,2.84-22.7,17.94-40.91,17.94-40.91,10.84-13.07,17.31-22.71,25.3-20.1,13.35,4.35,25,25,26.25,22.72,2.42-4.42-11.4-22.25-12.73-36.8-.16-1.74,2.08-8.43,5.82-9,6.57-1,18.5,19.37,17.84,16.84s.44-15,2.84-15.6c2.92-.72,11.53,20.42,11.89,18.92s5.64-17.93-2.44-32c-5.07-8.83-10.88-10.16-15.24-20.95-8.69-2.79-1.5-7.07-3.21-16.13-6.13-10.23-6.24-33.23-15.54-35.13-3.92-.8-6.92,2.87-13.81,8-12.39,14.11-12.07,20-18.57,22.43-9.84,3.59-21-3.77-29.33,7-4.25,5.46-4.22,10.08-9.88,12.11-4.74,1.7-8.53-.81-13.27,2.1-2.58,1.58-3.52,3.67-4.67,5.24-6,8.21-22,11.5-34.35,11.79-8.05.2-12.11-7.88-16.32-5.63-2.14,1.15-1.37,2.83-3.58,4.72-5.76,4.94-15.67-2.39-21,2.33-2.22,2-.55,3.29-3,5.81-3.89,3.92-8.91,1.64-15.88,5.53-2.54,1.42-3.54,3.38-4.89,3.73-13.91,3.53-50.71-1.36-50.56,4.21,5.77,2,6.38,3.68,7.18,4.1L231,258.54c-18.38,11.93-20.53,24.63-36.61,31-9.87,3.93-10.57-.25-28.05,4.4-14,3.72-15.73,7-25.33,9.85-26.7,7.95-47.4.7-52-.25s17.34,21.75,12.77,34.72c-4.42,12.56-30.66,15.22-30,17.8.37,1.47,8.68-.05,9.68,2.62.66,1.76-2.14,4.72-4.89,6.43-8.5,5.32-18-.27-20.76,3.85-1.77,2.64,1.7,5.63.23,9.64-1,2.62-3.53,4.28-6.21,5.34a296,296,0,0,0,219,193.84Zm22.56-292.58c1.7-5.47,8.59-15.24,18.46-19.8,5.53-2.55,20.26-3.55,21.26-1.78s-.72,13.06-5.9,18.18C314.72,292.27,289.75,290.71,291.46,285.24Z" transform="translate(-32 -3)"/><circle class="cls-3" cx="297.5" cy="297.5" r="285"/></svg>