<svg xmlns="http://www.w3.org/2000/svg" viewBox="0 0 595 595"><defs><style>.a{fill:#fff;}.a,.b{stroke:#fff;stroke-miterlimit:10;}.b{fill:none;stroke-width:25px;}</style></defs><path class="a" d="M239.9,579.32a22.48,22.48,0,0,1,5.39-6.46c9.25-7.86,20.41-4.18,25.22-13.32,3.1-5.89-.8-8.86,2.15-14.59,4.87-9.46,17.37-5.07,29.54-14.26,10.42-7.88,34.11-25.67,15.7-28.15s1.32-30.85,4.21-31.3c2-.3,4.66,6.4,5.79,5.93.68-.28-.11-2.75-.16-5.2-.2-8,7.26-15.51,9.52-14.58,2.44,1-.6,12.1,1.24,12.61.9.24,2.5-2.2,3.42-4.51,2.55-6.36-.64-10.09.06-15.68,1.17-9.28,12.27-17.28,17.84-15.36,3.43,1.18,3.89,5.81,6.05,5.6,2.76-.25,1.81-7.81,7.16-12.82,3.1-2.9,5.08-1.92,11.25-4.64,5.51-2.44,5.74-4,14.51-10.29,7.92-5.68,16.06-11.51,19.31-9.17,2.31,1.65,1.26,6.78,2.46,6.93.9.12,1.14-2.82,3.34-5.07,3-3.08,6.21-1.27,11-3.31,6.71-2.85,8.18-9.69,10.63-8.92,2.23.71,1.61,6.54,3.31,6.83,1.48.25,2.19-4.12,5.66-8.13,4.29-5,12-8.48,17.69-6.35,2.7,1,4.62,4.43,4.57,2.46s7.45-17.29,10.62-17c2.19.17,3.07,8.39,4.26,8.3,1.54-.12.49-13.94,3.28-14.5,2.17-.44,5.59,7.34,6.25,7s-3.51-5.88-2.05-11.2c1.57-5.74,7.92-5,9.4-10.36,1.58-5.64-5-8.37-3.85-16.62.43-3.11,1.69-5,.52-7.46a8.29,8.29,0,0,0-5.55-4.22c-1.7-.38-2.37.09-3.63,0-4.47-.19-6.18-6.5-11.27-11.6s-17.22-9.52-13.26-6.26,10.75,16,8.09,18.83c-.95,1-3.31,0-4.15,1.4-1,1.7,1.59,4.66.78,5.42s-2.49-1.39-4.2-.91c-2.7.74-1.83,6.7-3.87,7.46-3.52,1.32-11.63-14.39-14.29-13.39s4.29,15.61-1.12,20.46c-3.11,2.8-7.59-.09-26-2.74-7.1-1-11.55.33-16.27.08-13.22-.72-18.78-.52-21.74-4.59-2-2.71-1.73-6-1.4-8.67,2.83-22.7,17.93-40.91,17.93-40.91,10.84-13.07,17.31-22.71,25.3-20.1,13.35,4.35,25,25,26.26,22.72,2.42-4.42-11.4-22.25-12.73-36.8-.16-1.74,2.07-8.43,5.82-9,6.57-1,18.5,19.37,17.84,16.84s.43-15,2.83-15.6c2.92-.72,11.53,20.42,11.9,18.92s5.63-17.93-2.45-32c-5.06-8.83-10.87-10.16-15.24-20.95-8.69-2.79-1.5-7.07-3.2-16.13-6.13-10.23-6.24-33.23-15.54-35.13-3.92-.8-6.93,2.87-13.82,8-12.39,14.11-12.07,20-18.57,22.43-9.83,3.59-20.95-3.77-29.32,7-4.26,5.46-4.22,10.08-9.89,12.11-4.74,1.7-8.53-.81-13.26,2.1-2.58,1.58-3.52,3.67-4.67,5.24-6,8.21-22,11.5-34.35,11.79-8.05.2-12.11-7.88-16.32-5.63-2.15,1.15-1.37,2.83-3.59,4.72-5.75,4.94-15.66-2.39-21,2.33-2.22,2-.55,3.29-3,5.81-3.89,3.92-8.91,1.64-15.87,5.53-2.54,1.42-3.54,3.38-4.89,3.73-13.92,3.53-50.72-1.36-50.57,4.21,5.77,2,6.39,3.68,7.19,4.1L202.05,260c-18.39,11.93-20.54,24.63-36.62,31-9.86,3.93-10.57-.25-28.05,4.4-14,3.72-15.73,7-25.33,9.85-26.69,7.95-47.4.7-52-.25S77.4,326.83,72.84,339.8c-4.43,12.56-30.66,15.22-30,17.8.38,1.47,8.69-.05,9.69,2.62.66,1.76-2.14,4.72-4.89,6.43-8.51,5.32-18-.27-20.77,3.85-1.76,2.64,1.7,5.63.23,9.64-1,2.62-3.53,4.28-6.21,5.34a296.06,296.06,0,0,0,219,193.84Zm22.56-292.58c1.71-5.47,8.59-15.24,18.47-19.8,5.52-2.55,20.25-3.55,21.26-1.78s-.73,13.06-5.91,18.18C285.73,293.77,260.76,292.21,262.46,286.74Z" transform="translate(-3.01 -4.5)"/><circle class="b" cx="297.5" cy="297.5" r="285"/></svg>