<svg id="Capa_1" enable-background="new 0 0 503 503" height="512" viewBox="0 0 503 503" width="512" xmlns="http://www.w3.org/2000/svg"><g><path d="m466.409 248.961c0 5.54-4.491 10.031-10.031 10.031s-10.031-4.491-10.031-10.031 4.491-10.031 10.031-10.031 10.031 4.491 10.031 10.031zm9.355-43.053c-1.14 13.286-21.051 11.577-19.911-1.708l-.002.002c6.537-75.197-38.17-148.372-112.58-174.571-88.152-31.037-185.119 15.429-216.157 103.581-17.227 48.929-10.554 100.56 13.85 142.139 1.12-2.092 25.958-45.004 25.958-45.004 6.972-12.021 17.253-21.609 29.731-27.729l25.167-12.341c5.882-2.885 10.729-7.703 13.648-13.569l40.763-81.899c7.696-15.462 26.825-21.249 41.801-12.646l16.395 9.418c11.499 6.605 18.878 18.448 19.741 31.681l3.909 59.94 36.125-29.148c8.473-6.837 20.985-5.619 27.892 2.72 15.696 18.954 16.567 46.101 2.118 66.018-13.625 18.782-22.429 38.92-26.167 59.854l-4.757 26.641c-.653 3.66.167 7.281 2.281 10.294 12.356-10.28 23.336-22.383 32.471-36.089l-.007.03c7.347-11.006 23.96.083 16.613 11.089-8.841 13.282-19.231 25.207-30.82 35.632 4.738 8.889-2.23 30.905-11.417 41.161.956 9.836 5.807 18.836 13.638 25.096 2.567 2.053 3.962 5.236 3.731 8.515l-6.255 88.691c-.369 5.237-4.725 9.297-9.975 9.297h-366.836c-9.487 0-13.293-10.871-7.343-17.028l48.537-49.128c-5.377-7.965-4.416-17.589.677-24.024l29.906-37.794 14.792-55.039c2.105-7.834 4.688-15.523 7.68-23.05-33.124-48.185-43.58-110.978-22.675-170.353 34.749-98.695 142.923-150.531 241.614-115.783 83.313 29.334 133.234 110.995 125.864 195.104zm-186.643-92.109 8.938 4.489c4.944 2.483 10.964.48 13.435-4.47l4.79-9.595-8.213-4.718c-4.992-2.868-11.368-.939-13.934 4.215zm-151.579 230.184c10.13-6.991 21.81-11.595 34.292-13.344l17.68-2.478c7.065-.935 11.71 4.871 11.353 10.735l-1.596 19.125c-1.963 23.523-17.544 43.445-39.695 50.754-5.248 1.733-10.9-1.119-12.63-6.363s1.119-10.898 6.363-12.629c14.519-4.791 26.464-18.235 26.586-40.079-19.284 1.522-34.39 10.772-44.009 22.929l-41.62 52.597 4.788 7.939c4.826 8.001 14.405 11.577 23.293 8.697l42.977-13.929c25.402-8.234 46.233-25.786 58.658-49.422 2.57-4.888 8.616-6.767 13.504-4.198 4.889 2.569 6.769 8.616 4.199 13.505-14.868 28.283-39.796 49.287-70.194 59.141l-42.977 13.929c-17.215 5.455-31.082-1.327-38.543-7.803l-29.551 29.911h255.397l28.146-68.386c-66.282-13.88-117.703-68.191-127.083-136.07-.756-5.472 3.066-10.52 8.537-11.275 5.468-.747 10.518 3.066 11.274 8.537 8.739 63.242 59.155 112.869 122.548 121.111 8.081 1.051 9.969 9.373 7.986 13.726l-29.78 72.357h56.783l5.252-74.467c-11.02-10.654-17.245-25.22-17.245-40.73 0-2.57.98-5.053 2.764-6.904 4.814-4.992 8.058-11.13 9.474-17.777-13.506-4.961-23.764-20.058-20.874-37.354l4.757-26.641c4.273-23.931 14.255-46.836 29.667-68.082 9.056-12.484 8.541-29.485-1.236-41.399-.025-.003-36.149 29.123-36.149 29.123-11.736 9.52-31.284 2.939-32.518-14.264l-3.91-59.945c-.172-2.633-.874-5.151-2.014-7.437l-2.82 5.65c-7.42 14.864-25.507 20.868-40.343 13.392l-8.83-4.45-26.829 53.904c-10.992 22.084-16.892 53.074-16.95 53.385-.902 4.805-5.409 9.012-11.671 7.984-5.448-.894-9.002-6.239-7.986-11.667.138-.736 1.974-10.404 5.522-22.999l-16.829 8.252c-8.913 4.371-16.257 11.221-21.237 19.807l-22.494 38.783c-8.368 14.428-14.805 29.909-19.133 46.014z"/></g></svg>